<svg xmlns="http://www.w3.org/2000/svg" xmlns:xlink="http://www.w3.org/1999/xlink" width="63" zoomAndPan="magnify" viewBox="0 0 47.25 47.250001" height="63" preserveAspectRatio="xMidYMid meet" version="1.2"><defs><clipPath id="bdbc2f95d4"><path d="M 0 0 L 46.511719 0 L 46.511719 46.511719 L 0 46.511719 Z M 0 0 "/></clipPath><clipPath id="3487055351"><path d="M 0 0 L 23.230469 0 L 23.230469 23.230469 L 0 23.230469 Z M 0 0 "/></clipPath><clipPath id="99753fc922"><path d="M 0 0 L 23.230469 0 L 23.230469 23.230469 L 0 23.230469 Z M 0 0 "/></clipPath><clipPath id="2b0b0a0c61"><rect x="0" width="24" y="0" height="24"/></clipPath><clipPath id="cc8e8f4f95"><path d="M 23.230469 0 L 46.460938 0 L 46.460938 23.230469 L 23.230469 23.230469 Z M 23.230469 0 "/></clipPath><clipPath id="15b6d6d3af"><path d="M 0.230469 0 L 23.460938 0 L 23.460938 23.230469 L 0.230469 23.230469 Z M 0.230469 0 "/></clipPath><clipPath id="2efb8f8ea4"><rect x="0" width="24" y="0" height="24"/></clipPath><clipPath id="c6f8c36ea5"><path d="M 23.230469 23.230469 L 46.460938 23.230469 L 46.460938 46.460938 L 23.230469 46.460938 Z M 23.230469 23.230469 "/></clipPath><clipPath id="d76954730b"><path d="M 0.230469 0.230469 L 23.460938 0.230469 L 23.460938 23.460938 L 0.230469 23.460938 Z M 0.230469 0.230469 "/></clipPath><clipPath id="703d07abb7"><rect x="0" width="24" y="0" height="24"/></clipPath><clipPath id="4dade8fa12"><path d="M 0 23.230469 L 23.230469 23.230469 L 23.230469 46.460938 L 0 46.460938 Z M 0 23.230469 "/></clipPath><clipPath id="869d8498d7"><path d="M 0 0.230469 L 23.230469 0.230469 L 23.230469 23.460938 L 0 23.460938 Z M 0 0.230469 "/></clipPath><clipPath id="6f8f51d4ee"><rect x="0" width="24" y="0" height="24"/></clipPath><clipPath id="7c79f793f6"><rect x="0" width="47" y="0" height="47"/></clipPath></defs><g id="e430ebf917"><g clip-rule="nonzero" clip-path="url(#bdbc2f95d4)"><g transform="matrix(1,0,0,1,0,0.00000000000000528)"><g clip-path="url(#7c79f793f6)"><g clip-rule="nonzero" clip-path="url(#3487055351)"><g transform="matrix(1,0,0,1,0,0.00000000000000528)"><g id="1637af8bcb" clip-path="url(#2b0b0a0c61)"><g clip-rule="nonzero" clip-path="url(#99753fc922)"><path style=" stroke:none;fill-rule:nonzero;fill:#5170ff;fill-opacity:1;" d="M 0 0 L 23.230469 0 L 23.230469 23.230469 L 0 23.230469 Z M 0 0 "/></g></g></g></g><g clip-rule="nonzero" clip-path="url(#cc8e8f4f95)"><g transform="matrix(1,0,0,1,23,0.00000000000000528)"><g id="c121f6e939" clip-path="url(#2efb8f8ea4)"><g clip-rule="nonzero" clip-path="url(#15b6d6d3af)"><path style=" stroke:none;fill-rule:nonzero;fill:#ffde59;fill-opacity:1;" d="M 0.230469 0 L 23.460938 0 L 23.460938 23.230469 L 0.230469 23.230469 Z M 0.230469 0 "/></g></g></g></g><g clip-rule="nonzero" clip-path="url(#c6f8c36ea5)"><g transform="matrix(1,0,0,1,23,23)"><g id="c9e8c87c0c" clip-path="url(#703d07abb7)"><g clip-rule="nonzero" clip-path="url(#d76954730b)"><path style=" stroke:none;fill-rule:nonzero;fill:#ef5241;fill-opacity:1;" d="M 0.230469 0.230469 L 23.460938 0.230469 L 23.460938 23.460938 L 0.230469 23.460938 Z M 0.230469 0.230469 "/></g></g></g></g><g clip-rule="nonzero" clip-path="url(#4dade8fa12)"><g transform="matrix(1,0,0,1,0,23)"><g id="108161ba7b" clip-path="url(#6f8f51d4ee)"><g clip-rule="nonzero" clip-path="url(#869d8498d7)"><path style=" stroke:none;fill-rule:nonzero;fill:#00bf63;fill-opacity:1;" d="M 0 0.230469 L 23.230469 0.230469 L 23.230469 23.460938 L 0 23.460938 Z M 0 0.230469 "/></g></g></g></g></g></g></g></g></svg>