<svg xmlns="http://www.w3.org/2000/svg" xmlns:xlink="http://www.w3.org/1999/xlink" width="354" zoomAndPan="magnify" viewBox="0 0 265.5 146.249994" height="195" preserveAspectRatio="xMidYMid meet" version="1.2"><defs/><g id="09458b74bf"><g style="fill:#5170ff;fill-opacity:1;"><g transform="translate(21.696087, 100.463148)"><path style="stroke:none" d="M 17.15625 -20.46875 L 17.15625 0 L 5.1875 0 L 5.1875 -58.078125 L 27.84375 -58.078125 C 32.207031 -58.078125 36.046875 -57.28125 39.359375 -55.6875 C 42.671875 -54.09375 45.21875 -51.828125 47 -48.890625 C 48.78125 -45.953125 49.671875 -42.609375 49.671875 -38.859375 C 49.671875 -33.160156 47.722656 -28.671875 43.828125 -25.390625 C 39.929688 -22.109375 34.535156 -20.46875 27.640625 -20.46875 Z M 17.15625 -30.15625 L 27.84375 -30.15625 C 31.007812 -30.15625 33.421875 -30.898438 35.078125 -32.390625 C 36.742188 -33.878906 37.578125 -36.007812 37.578125 -38.78125 C 37.578125 -41.625 36.738281 -43.921875 35.0625 -45.671875 C 33.382812 -47.429688 31.070312 -48.335938 28.125 -48.390625 L 17.15625 -48.390625 Z M 17.15625 -30.15625 "/></g></g><g style="fill:#5170ff;fill-opacity:1;"><g transform="translate(69.488269, 100.463148)"><path style="stroke:none" d="M 2.640625 -21.984375 C 2.640625 -26.265625 3.460938 -30.078125 5.109375 -33.421875 C 6.753906 -36.773438 9.125 -39.367188 12.21875 -41.203125 C 15.320312 -43.046875 18.921875 -43.96875 23.015625 -43.96875 C 28.835938 -43.96875 33.59375 -42.179688 37.28125 -38.609375 C 40.96875 -35.046875 43.019531 -30.207031 43.4375 -24.09375 L 43.53125 -21.140625 C 43.53125 -14.515625 41.679688 -9.203125 37.984375 -5.203125 C 34.285156 -1.203125 29.320312 0.796875 23.09375 0.796875 C 16.875 0.796875 11.910156 -1.195312 8.203125 -5.1875 C 4.492188 -9.175781 2.640625 -14.601562 2.640625 -21.46875 Z M 14.15625 -21.140625 C 14.15625 -17.046875 14.925781 -13.914062 16.46875 -11.75 C 18.019531 -9.582031 20.226562 -8.5 23.09375 -8.5 C 25.882812 -8.5 28.066406 -9.566406 29.640625 -11.703125 C 31.210938 -13.847656 32 -17.273438 32 -21.984375 C 32 -25.992188 31.210938 -29.101562 29.640625 -31.3125 C 28.066406 -33.519531 25.859375 -34.625 23.015625 -34.625 C 20.203125 -34.625 18.019531 -33.523438 16.46875 -31.328125 C 14.925781 -29.140625 14.15625 -25.742188 14.15625 -21.140625 Z M 14.15625 -21.140625 "/></g></g><g style="fill:#5170ff;fill-opacity:1;"><g transform="translate(110.778406, 100.463148)"><path style="stroke:none" d="M 27.8125 -11.921875 C 27.8125 -13.335938 27.113281 -14.445312 25.71875 -15.25 C 24.320312 -16.0625 22.078125 -16.789062 18.984375 -17.4375 C 8.722656 -19.59375 3.59375 -23.953125 3.59375 -30.515625 C 3.59375 -34.347656 5.179688 -37.546875 8.359375 -40.109375 C 11.535156 -42.679688 15.691406 -43.96875 20.828125 -43.96875 C 26.304688 -43.96875 30.6875 -42.675781 33.96875 -40.09375 C 37.25 -37.507812 38.890625 -34.160156 38.890625 -30.046875 L 27.375 -30.046875 C 27.375 -31.691406 26.835938 -33.050781 25.765625 -34.125 C 24.703125 -35.207031 23.039062 -35.75 20.78125 -35.75 C 18.84375 -35.75 17.34375 -35.304688 16.28125 -34.421875 C 15.21875 -33.546875 14.6875 -32.429688 14.6875 -31.078125 C 14.6875 -29.796875 15.289062 -28.765625 16.5 -27.984375 C 17.707031 -27.203125 19.742188 -26.523438 22.609375 -25.953125 C 25.484375 -25.378906 27.90625 -24.734375 29.875 -24.015625 C 35.96875 -21.785156 39.015625 -17.914062 39.015625 -12.40625 C 39.015625 -8.46875 37.328125 -5.28125 33.953125 -2.84375 C 30.578125 -0.414062 26.210938 0.796875 20.859375 0.796875 C 17.242188 0.796875 14.03125 0.148438 11.21875 -1.140625 C 8.414062 -2.429688 6.21875 -4.195312 4.625 -6.4375 C 3.03125 -8.6875 2.234375 -11.113281 2.234375 -13.71875 L 13.171875 -13.71875 C 13.273438 -11.675781 14.03125 -10.109375 15.4375 -9.015625 C 16.84375 -7.921875 18.734375 -7.375 21.109375 -7.375 C 23.316406 -7.375 24.984375 -7.789062 26.109375 -8.625 C 27.242188 -9.46875 27.8125 -10.566406 27.8125 -11.921875 Z M 27.8125 -11.921875 "/></g></g><g style="fill:#5170ff;fill-opacity:1;"><g transform="translate(147.880118, 100.463148)"><path style="stroke:none" d="M 18.234375 -53.78125 L 18.234375 -43.171875 L 25.609375 -43.171875 L 25.609375 -34.703125 L 18.234375 -34.703125 L 18.234375 -13.171875 C 18.234375 -11.566406 18.535156 -10.421875 19.140625 -9.734375 C 19.753906 -9.046875 20.925781 -8.703125 22.65625 -8.703125 C 23.9375 -8.703125 25.066406 -8.789062 26.046875 -8.96875 L 26.046875 -0.234375 C 23.785156 0.453125 21.457031 0.796875 19.0625 0.796875 C 10.976562 0.796875 6.859375 -3.285156 6.703125 -11.453125 L 6.703125 -34.703125 L 0.40625 -34.703125 L 0.40625 -43.171875 L 6.703125 -43.171875 L 6.703125 -53.78125 Z M 18.234375 -53.78125 "/></g></g><g style="fill:#ffde59;fill-opacity:1;"><g transform="translate(166.261011, 100.463148)"><path style="stroke:none" d="M 26.84375 -20.21875 L 4.390625 -20.21875 L 4.390625 -29.515625 L 26.84375 -29.515625 Z M 26.84375 -20.21875 "/></g></g><g style="fill:#ef5241;fill-opacity:1;"><g transform="translate(193.041641, 100.463148)"><path style="stroke:none" d="M 17.90625 0 L 5.9375 0 L 5.9375 -58.078125 L 17.90625 -58.078125 Z M 17.90625 0 "/></g></g><g style="fill:#ef5241;fill-opacity:1;"><g transform="translate(211.9536, 100.463148)"><path style="stroke:none" d="M 18.234375 -53.78125 L 18.234375 -43.171875 L 25.609375 -43.171875 L 25.609375 -34.703125 L 18.234375 -34.703125 L 18.234375 -13.171875 C 18.234375 -11.566406 18.535156 -10.421875 19.140625 -9.734375 C 19.753906 -9.046875 20.925781 -8.703125 22.65625 -8.703125 C 23.9375 -8.703125 25.066406 -8.789062 26.046875 -8.96875 L 26.046875 -0.234375 C 23.785156 0.453125 21.457031 0.796875 19.0625 0.796875 C 10.976562 0.796875 6.859375 -3.285156 6.703125 -11.453125 L 6.703125 -34.703125 L 0.40625 -34.703125 L 0.40625 -43.171875 L 6.703125 -43.171875 L 6.703125 -53.78125 Z M 18.234375 -53.78125 "/></g></g><g style="fill:#00bf63;fill-opacity:1;"><g transform="translate(26.890925, 125.497416)"><path style="stroke:none" d="M 5.796875 -2.5 C 5.796875 -2.875 5.664062 -3.160156 5.40625 -3.359375 C 5.144531 -3.554688 4.671875 -3.765625 3.984375 -3.984375 C 3.304688 -4.203125 2.769531 -4.421875 2.375 -4.640625 C 1.289062 -5.222656 0.75 -6.007812 0.75 -7 C 0.75 -7.519531 0.894531 -7.976562 1.1875 -8.375 C 1.476562 -8.78125 1.894531 -9.097656 2.4375 -9.328125 C 2.976562 -9.554688 3.585938 -9.671875 4.265625 -9.671875 C 4.941406 -9.671875 5.546875 -9.546875 6.078125 -9.296875 C 6.617188 -9.054688 7.035156 -8.707031 7.328125 -8.25 C 7.617188 -7.800781 7.765625 -7.289062 7.765625 -6.71875 L 5.8125 -6.71875 C 5.8125 -7.15625 5.671875 -7.492188 5.390625 -7.734375 C 5.117188 -7.984375 4.734375 -8.109375 4.234375 -8.109375 C 3.753906 -8.109375 3.378906 -8.003906 3.109375 -7.796875 C 2.847656 -7.597656 2.71875 -7.332031 2.71875 -7 C 2.71875 -6.6875 2.875 -6.425781 3.1875 -6.21875 C 3.5 -6.007812 3.957031 -5.8125 4.5625 -5.625 C 5.675781 -5.289062 6.488281 -4.875 7 -4.375 C 7.507812 -3.875 7.765625 -3.253906 7.765625 -2.515625 C 7.765625 -1.691406 7.453125 -1.046875 6.828125 -0.578125 C 6.203125 -0.109375 5.363281 0.125 4.3125 0.125 C 3.582031 0.125 2.914062 -0.00390625 2.3125 -0.265625 C 1.707031 -0.535156 1.242188 -0.90625 0.921875 -1.375 C 0.609375 -1.84375 0.453125 -2.382812 0.453125 -3 L 2.421875 -3 C 2.421875 -1.945312 3.050781 -1.421875 4.3125 -1.421875 C 4.78125 -1.421875 5.144531 -1.515625 5.40625 -1.703125 C 5.664062 -1.898438 5.796875 -2.164062 5.796875 -2.5 Z M 5.796875 -2.5 "/></g></g><g style="fill:#00bf63;fill-opacity:1;"><g transform="translate(41.92151, 125.497416)"><path style="stroke:none" d="M 3.421875 -9.546875 L 5.875 -2.625 L 8.3125 -9.546875 L 10.890625 -9.546875 L 10.890625 0 L 8.921875 0 L 8.921875 -2.609375 L 9.109375 -7.109375 L 6.546875 0 L 5.1875 0 L 2.625 -7.109375 L 2.8125 -2.609375 L 2.8125 0 L 0.859375 0 L 0.859375 -9.546875 Z M 3.421875 -9.546875 "/></g></g><g style="fill:#00bf63;fill-opacity:1;"><g transform="translate(60.457661, 125.497416)"><path style="stroke:none" d="M 3.421875 -9.546875 L 5.875 -2.625 L 8.3125 -9.546875 L 10.890625 -9.546875 L 10.890625 0 L 8.921875 0 L 8.921875 -2.609375 L 9.109375 -7.109375 L 6.546875 0 L 5.1875 0 L 2.625 -7.109375 L 2.8125 -2.609375 L 2.8125 0 L 0.859375 0 L 0.859375 -9.546875 Z M 3.421875 -9.546875 "/></g></g><g style="fill:#00bf63;fill-opacity:1;"><g transform="translate(78.993813, 125.497416)"><path style="stroke:none" d=""/></g></g><g style="fill:#00bf63;fill-opacity:1;"><g transform="translate(89.116591, 125.497416)"><path style="stroke:none" d="M 6.234375 -1.96875 L 2.796875 -1.96875 L 2.140625 0 L 0.046875 0 L 3.59375 -9.546875 L 5.421875 -9.546875 L 8.984375 0 L 6.90625 0 Z M 3.328125 -3.5625 L 5.703125 -3.5625 L 4.515625 -7.125 Z M 3.328125 -3.5625 "/></g></g><g style="fill:#00bf63;fill-opacity:1;"><g transform="translate(104.926914, 125.497416)"><path style="stroke:none" d="M 8.078125 -9.546875 L 8.078125 -3.25 C 8.078125 -2.207031 7.75 -1.382812 7.09375 -0.78125 C 6.4375 -0.175781 5.546875 0.125 4.421875 0.125 C 3.304688 0.125 2.421875 -0.164062 1.765625 -0.75 C 1.109375 -1.34375 0.773438 -2.15625 0.765625 -3.1875 L 0.765625 -9.546875 L 2.71875 -9.546875 L 2.71875 -3.25 C 2.71875 -2.625 2.867188 -2.164062 3.171875 -1.875 C 3.472656 -1.59375 3.890625 -1.453125 4.421875 -1.453125 C 5.523438 -1.453125 6.082031 -2.03125 6.09375 -3.1875 L 6.09375 -9.546875 Z M 8.078125 -9.546875 "/></g></g><g style="fill:#00bf63;fill-opacity:1;"><g transform="translate(120.540664, 125.497416)"><path style="stroke:none" d="M 8.03125 -7.953125 L 5.109375 -7.953125 L 5.109375 0 L 3.140625 0 L 3.140625 -7.953125 L 0.265625 -7.953125 L 0.265625 -9.546875 L 8.03125 -9.546875 Z M 8.03125 -7.953125 "/></g></g><g style="fill:#00bf63;fill-opacity:1;"><g transform="translate(135.623668, 125.497416)"><path style="stroke:none" d="M 8.6875 -4.5625 C 8.6875 -3.613281 8.519531 -2.785156 8.1875 -2.078125 C 7.851562 -1.367188 7.378906 -0.820312 6.765625 -0.4375 C 6.148438 -0.0625 5.441406 0.125 4.640625 0.125 C 3.847656 0.125 3.140625 -0.0625 2.515625 -0.4375 C 1.898438 -0.820312 1.421875 -1.363281 1.078125 -2.0625 C 0.734375 -2.769531 0.5625 -3.582031 0.5625 -4.5 L 0.5625 -4.96875 C 0.5625 -5.914062 0.726562 -6.742188 1.0625 -7.453125 C 1.40625 -8.171875 1.882812 -8.71875 2.5 -9.09375 C 3.125 -9.476562 3.832031 -9.671875 4.625 -9.671875 C 5.414062 -9.671875 6.117188 -9.476562 6.734375 -9.09375 C 7.359375 -8.71875 7.835938 -8.171875 8.171875 -7.453125 C 8.515625 -6.742188 8.6875 -5.921875 8.6875 -4.984375 Z M 6.703125 -4.984375 C 6.703125 -5.984375 6.519531 -6.742188 6.15625 -7.265625 C 5.800781 -7.785156 5.289062 -8.046875 4.625 -8.046875 C 3.96875 -8.046875 3.457031 -7.785156 3.09375 -7.265625 C 2.738281 -6.753906 2.5625 -6.003906 2.5625 -5.015625 L 2.5625 -4.5625 C 2.5625 -3.582031 2.738281 -2.820312 3.09375 -2.28125 C 3.445312 -1.75 3.960938 -1.484375 4.640625 -1.484375 C 5.296875 -1.484375 5.800781 -1.738281 6.15625 -2.25 C 6.507812 -2.769531 6.691406 -3.523438 6.703125 -4.515625 Z M 6.703125 -4.984375 "/></g></g><g style="fill:#00bf63;fill-opacity:1;"><g transform="translate(151.669881, 125.497416)"><path style="stroke:none" d="M 3.421875 -9.546875 L 5.875 -2.625 L 8.3125 -9.546875 L 10.890625 -9.546875 L 10.890625 0 L 8.921875 0 L 8.921875 -2.609375 L 9.109375 -7.109375 L 6.546875 0 L 5.1875 0 L 2.625 -7.109375 L 2.8125 -2.609375 L 2.8125 0 L 0.859375 0 L 0.859375 -9.546875 Z M 3.421875 -9.546875 "/></g></g><g style="fill:#00bf63;fill-opacity:1;"><g transform="translate(170.206032, 125.497416)"><path style="stroke:none" d="M 6.234375 -1.96875 L 2.796875 -1.96875 L 2.140625 0 L 0.046875 0 L 3.59375 -9.546875 L 5.421875 -9.546875 L 8.984375 0 L 6.90625 0 Z M 3.328125 -3.5625 L 5.703125 -3.5625 L 4.515625 -7.125 Z M 3.328125 -3.5625 "/></g></g><g style="fill:#00bf63;fill-opacity:1;"><g transform="translate(186.016356, 125.497416)"><path style="stroke:none" d="M 8.03125 -7.953125 L 5.109375 -7.953125 L 5.109375 0 L 3.140625 0 L 3.140625 -7.953125 L 0.265625 -7.953125 L 0.265625 -9.546875 L 8.03125 -9.546875 Z M 8.03125 -7.953125 "/></g></g><g style="fill:#00bf63;fill-opacity:1;"><g transform="translate(201.09936, 125.497416)"><path style="stroke:none" d="M 2.9375 0 L 0.96875 0 L 0.96875 -9.546875 L 2.9375 -9.546875 Z M 2.9375 0 "/></g></g><g style="fill:#00bf63;fill-opacity:1;"><g transform="translate(211.792209, 125.497416)"><path style="stroke:none" d="M 8.6875 -4.5625 C 8.6875 -3.613281 8.519531 -2.785156 8.1875 -2.078125 C 7.851562 -1.367188 7.378906 -0.820312 6.765625 -0.4375 C 6.148438 -0.0625 5.441406 0.125 4.640625 0.125 C 3.847656 0.125 3.140625 -0.0625 2.515625 -0.4375 C 1.898438 -0.820312 1.421875 -1.363281 1.078125 -2.0625 C 0.734375 -2.769531 0.5625 -3.582031 0.5625 -4.5 L 0.5625 -4.96875 C 0.5625 -5.914062 0.726562 -6.742188 1.0625 -7.453125 C 1.40625 -8.171875 1.882812 -8.71875 2.5 -9.09375 C 3.125 -9.476562 3.832031 -9.671875 4.625 -9.671875 C 5.414062 -9.671875 6.117188 -9.476562 6.734375 -9.09375 C 7.359375 -8.71875 7.835938 -8.171875 8.171875 -7.453125 C 8.515625 -6.742188 8.6875 -5.921875 8.6875 -4.984375 Z M 6.703125 -4.984375 C 6.703125 -5.984375 6.519531 -6.742188 6.15625 -7.265625 C 5.800781 -7.785156 5.289062 -8.046875 4.625 -8.046875 C 3.96875 -8.046875 3.457031 -7.785156 3.09375 -7.265625 C 2.738281 -6.753906 2.5625 -6.003906 2.5625 -5.015625 L 2.5625 -4.5625 C 2.5625 -3.582031 2.738281 -2.820312 3.09375 -2.28125 C 3.445312 -1.75 3.960938 -1.484375 4.640625 -1.484375 C 5.296875 -1.484375 5.800781 -1.738281 6.15625 -2.25 C 6.507812 -2.769531 6.691406 -3.523438 6.703125 -4.515625 Z M 6.703125 -4.984375 "/></g></g><g style="fill:#00bf63;fill-opacity:1;"><g transform="translate(227.838421, 125.497416)"><path style="stroke:none" d="M 8.609375 0 L 6.640625 0 L 2.8125 -6.28125 L 2.8125 0 L 0.859375 0 L 0.859375 -9.546875 L 2.8125 -9.546875 L 6.65625 -3.25 L 6.65625 -9.546875 L 8.609375 -9.546875 Z M 8.609375 0 "/></g></g></g></svg>